<?xml version="1.0" encoding="UTF-8"?>
<svg width="157px" height="32px" viewBox="0 0 157 32" version="1.1" xmlns="http://www.w3.org/2000/svg" xmlns:xlink="http://www.w3.org/1999/xlink">
    <title>Size XL/Logo</title>
    <g id="Size-XL/Logo" stroke="none" stroke-width="1" fill="none" fill-rule="evenodd">
        <g id="logo">
            <path d="M0,15.9599652 C0,7.14535235 7.1623185,0 15.9971637,0 C24.8323857,0 31.9941389,7.14535235 31.9941389,15.9599652 C31.9941389,24.77533 24.8323857,31.9204944 15.9971637,31.9204944 C7.1623185,31.9204944 0,24.77533 0,15.9599652" id="Fill-10" fill="#000000"></path>
            <path d="M6.22931392,17.7040689 C3.86655908,16.941725 2.57070893,14.4153681 3.33517949,12.0621602 C4.09965006,9.70895219 6.63463219,8.41926563 8.99776389,9.18217351 C11.361084,9.94489339 12.6569342,12.4706862 11.8918983,14.8242702 C11.1279931,17.1776662 8.5922572,18.4671648 6.22931392,17.7040689" id="Fill-12" fill="#FFFFFF"></path>
            <path d="M14.4154049,25.7256185 C12.9552416,27.7321527 10.1410026,28.179783 8.13080491,26.7263476 C6.12023036,25.2729122 5.67477598,22.4692539 7.13569299,20.4629077 C8.59623313,18.4573135 11.4102838,18.0094952 13.4206699,19.4629306 C15.4308675,20.916554 15.8763219,23.7200243 14.4154049,25.7256185" id="Fill-14" fill="#FFFFFF"></path>
            <path d="M24.8042716,20.4289547 C26.2606662,22.4354889 25.81182,25.2421552 23.8016224,26.6999146 C21.7910478,28.1574861 18.9805774,27.7130518 17.5241828,25.7074576 C16.0674113,23.7011114 16.5166343,20.8940691 18.526832,19.4364977 C20.5370297,17.9789263 23.347877,18.4233605 24.8042716,20.4289547" id="Fill-16" fill="#FFFFFF"></path>
            <path d="M22.6714986,9.19200596 C25.0306732,8.42928608 27.5622636,9.72216866 28.327111,12.0795127 C29.0915815,14.4374207 27.7991232,16.9664095 25.4405138,17.7296934 C23.0813392,18.4920373 20.549372,17.1999067 19.7849014,14.8418107 C19.0202424,12.4842787 20.3128892,9.95472584 22.6714986,9.19200596" id="Fill-18" fill="#FFFFFF"></path>
            <path d="M11.5024649,7.34322336 C11.5024649,4.86668676 13.5147354,2.85902455 15.9971448,2.85902455 C18.4793659,2.85902455 20.4916363,4.86668676 20.4916363,7.34322336 C20.4916363,9.81975996 18.4793659,11.8270462 15.9971448,11.8270462 C13.5147354,11.8270462 11.5024649,9.81975996 11.5024649,7.34322336" id="Fill-20" fill="#EE7D00"></path>
            <path d="M11.5024649,7.34322336 C11.5024649,4.86668676 13.5147354,2.85902455 15.9971448,2.85902455 C18.4793659,2.85902455 20.4916363,4.86668676 20.4916363,7.34322336 C20.4916363,9.81975996 18.4793659,11.8270462 15.9971448,11.8270462 C13.5147354,11.8270462 11.5024649,9.81975996 11.5024649,7.34322336 Z" id="Stroke-22" stroke="#EE7D00" stroke-width="0.5"></path>
            <path d="M117.199405,0.0390853988 C117.970848,0.0390853988 120.920193,-0.186891751 123.32478,1.17103916 C126.364761,2.89143591 127.136203,5.69791419 127.408677,6.87498818 C127.499124,7.37300271 127.726185,8.50495647 127.726185,9.90819561 C127.726185,11.1305778 127.544725,16.0648509 124.005398,19.1439306 C121.238078,21.5431988 117.834799,21.5431988 114.386297,21.5431988 L110.348,21.5431988 L108.941163,32 L100.229553,32 L104.404274,0.0390853988 Z M146.473408,0.0390853988 C147.244662,0.0390853988 150.194007,-0.186891751 152.598783,1.17103916 C155.638764,2.89143591 156.410206,5.69791419 156.68268,6.87498818 C156.773127,7.37300271 157,8.50495647 157,9.90819561 C157,11.1305778 156.81854,16.0648509 153.279401,19.1439306 C150.511893,21.5431988 147.108614,21.5431988 143.6603,21.5431988 L139.622003,21.5431988 L138.215166,32 L129.503556,32 L133.678089,0.0390853988 Z M119.195847,10.1347368 C119.195847,6.4675901 115.792945,6.73925149 114.885454,6.73925149 L114.885454,6.73925149 L112.253429,6.73925149 L111.210267,14.70692 L114.341073,14.70692 C115.565695,14.70692 116.019441,14.6161156 116.564199,14.4352586 C118.424593,13.8015074 119.195847,11.945374 119.195847,10.1347368 Z M148.470039,10.1347368 C148.470039,6.4675901 145.06676,6.73925149 144.159269,6.73925149 L144.159269,6.73925149 L141.527432,6.73925149 L140.484082,14.70692 L143.614887,14.70692 C144.840075,14.70692 145.293444,14.6161156 145.838202,14.4352586 C147.698408,13.8015074 148.470039,11.945374 148.470039,10.1347368 Z M79.2569427,19.8227456 C80.0737975,17.7398831 80.8904638,15.7027047 81.6620948,13.5750979 C82.3423361,11.7189644 82.9325066,9.86301898 83.5679009,7.9615773 L85.3372819,19.8227456 L79.2569427,19.8227456 Z M55.7470703,0.0390853988 L52.5258171,24.3034288 L62.4629923,24.3034288 L61.4643001,32 L42.8155146,32 L47.0806838,0.0390853988 L55.7470703,0.0390853988 Z M89.3301661,0.0392169995 L97.5878426,31.9999436 L88.5131229,31.9999436 L86.925014,26.4321073 L76.2171499,26.4321073 L73.6309142,31.9999436 L64.0116246,31.9999436 L79.8471132,0.0392169995 L89.3301661,0.0392169995 Z" id="Fill-2" fill="#EE711C"></path>
        </g>
    </g>
</svg>